<?xml version="1.0" encoding="ISO-8859-1"?>

<!DOCTYPE svg PUBLIC "-//W3C//DTD SVG 20010904//EN" 
                         "http://www.w3.org/TR/2001/REC-SVG-20010904/DTD/svg10.dtd">

<svg	xmlns="http://www.w3.org/2000/svg"
	viewBox="-300 0 1650 150">
	

 <defs>
  <style type="text/css"><![CDATA[
   polyline { stroke:#000080; stroke-width:2; fill:none; }
   rect { fill:#000050; }
  ]]></style>
 </defs>

 <!--rect x="-500" y="-75" width="2000" height="330" /-->

 <g transform="translate(-281.25,0)">
  <polyline points="-18.75,130 0,130 0,20 120,20 120,102.5 60,102.5 60,75 90,75 90,47.5 30,47.5 30,130 150,130"/>
 </g>
 <g transform="translate(-131.25,0)">
  <polyline points="0,130 0,20 120,20 120,102.5 60,102.5 60,75 90,75 90,47.5 30,47.5 30,130 150,130"/>
 </g>
 <g transform="translate(18.75,0)">
  <polyline points="0,130 0,20 120,20 120,102.5 60,102.5 60,75 90,75 90,47.5 30,47.5 30,130 150,130"/>
 </g>
 <g transform="translate(168.75,0)">
  <polyline points="0,130 0,20 120,20 120,102.5 60,102.5 60,75 90,75 90,47.5 30,47.5 30,130 150,130"/>
 </g>
 <g transform="translate(318.75,0)">
  <polyline points="0,130 0,20 120,20 120,102.5 60,102.5 60,75 90,75 90,47.5 30,47.5 30,130 150,130"/>
 </g>
 <g transform="translate(468.75,0)">
  <polyline points="0,130 0,20 120,20 120,102.5 60,102.5 60,75 90,75 90,47.5 30,47.5 30,130 150,130"/>
 </g>
 <g transform="translate(618.75,0)">
  <polyline points="0,130 0,20 120,20 120,102.5 60,102.5 60,75 90,75 90,47.5 30,47.5 30,130 150,130"/>
 </g>
 <g transform="translate(768.75,0)">
  <polyline points="0,130 0,20 120,20 120,102.5 60,102.5 60,75 90,75 90,47.5 30,47.5 30,130 150,130"/>
 </g>
 <g transform="translate(918.75,0)">
  <polyline points="0,130 0,20 120,20 120,102.5 60,102.5 60,75 90,75 90,47.5 30,47.5 30,130 150,130"/>
 </g>
 <g transform="translate(1068.75,0)">
  <polyline points="0,130 0,20 120,20 120,102.5 60,102.5 60,75 90,75 90,47.5 30,47.5 30,130 150,130"/>
 </g>
 <g transform="translate(1218.75,0)">
  <polyline points="0,130 0,20 120,20 120,102.5 60,102.5 60,75 90,75 90,47.5 30,47.5 30,130 131.25,130"/>
 </g>

</svg>
