<svg width="150" height="150" viewBox="0 0 150 150"
	xmlns="http://www.w3.org/2000/svg"
	xmlns:xlink="http://www.w3.org/1999/xlink" >

 <g transform="scale(0.5,0.5)" stroke="black" stroke-width="2">
  <g id="cube">
   <line x1="30" y1="60" x2="30" y2="120"/>
   <line x1="30" y1="60" x2="90" y2="60"/>
   <line x1="90" y1="60" x2="90" y2="120"/>
   <line x1="30" y1="120" x2="90" y2="120"/>
   <line x1="60" y1="30" x2="120" y2="30"/>
   <line x1="60" y1="30" x2="60" y2="90"/>
   <line x1="60" y1="90" x2="120" y2="90"/>
   <line x1="120" y1="30" x2="120" y2="90"/>
   <line x1="30" y1="60" x2="60" y2="30"/>
   <line x1="90" y1="60" x2="120" y2="30"/>
   <line x1="30" y1="120" x2="60" y2="90"/>
   <line x1="90" y1="120" x2="120" y2="90"/>
  </g>
 </g>

 <g transform="translate(0,90) scale(0.5,0.25)" stroke="#CC0000" stroke-width="4">
  <use xlink:href="#cube" />
 </g>

 <g transform="translate(90,0) scale(0.25,0.5)" stroke="#008800" stroke-width="4">
  <use xlink:href="#cube" />
 </g>

 <g transform="translate(90,90) scale(0.25,0.25)" stroke="#0000CC" stroke-width="6">
  <use xlink:href="#cube" />
 </g>

</svg>
